<svg width="28" height="28" viewBox="0 0 28 28" fill="none" xmlns="http://www.w3.org/2000/svg">
<rect width="28" height="28" rx="14" fill="#2C2A2B"/>
<path d="M9.49557 8.35282C9.38142 8.38387 9.2684 8.41585 9.15636 8.449C6.28228 9.29926 6.31528 13.4103 9.31247 13.3974C9.79323 13.3953 10.3179 13.3569 10.9019 13.2876C11.0735 13.2672 11.273 13.2236 11.4389 13.1753C14.0198 12.4226 14.2061 9.05293 11.5913 8.42808C11.4299 8.3895 11.2713 8.35385 11.1151 8.32005C10.58 8.20425 10.0239 8.20916 9.49557 8.35282Z" fill="white"/>
<path d="M10.3422 11.619C9.04768 12.4178 7.67829 10.4563 8.90104 9.55151V9.55151C8.93558 9.52596 8.97122 9.5021 9.00783 9.47991C10.2423 8.73153 11.5406 10.7363 10.3802 11.595V11.595C10.3676 11.6031 10.3549 11.6111 10.3422 11.619Z" fill="#2C2A2B"/>
<path d="M12.6682 11.5884C12.554 11.6194 12.441 11.6514 12.329 11.6845C9.45488 12.5348 9.48789 16.6458 12.4851 16.6329C12.9658 16.6308 13.4905 16.5924 14.0745 16.5231C14.2461 16.5028 14.4456 16.4592 14.6115 16.4108C17.1924 15.6581 17.3787 12.2885 14.7639 11.6636C14.6025 11.625 14.4439 11.5894 14.2877 11.5556C13.7526 11.4398 13.1965 11.4447 12.6682 11.5884Z" fill="white"/>
<path d="M13.5155 14.8545C12.221 15.6533 10.8516 13.6918 12.0744 12.787V12.787C12.1089 12.7615 12.1446 12.7376 12.1812 12.7154C13.4156 11.9671 14.714 13.9719 13.5535 14.8306V14.8306C13.5409 14.8387 13.5282 14.8466 13.5155 14.8545Z" fill="#2C2A2B"/>
<path d="M15.9043 14.7615C15.7901 14.7926 15.6771 14.8245 15.5651 14.8577C12.691 15.708 12.724 19.819 15.7212 19.8061C16.2019 19.804 16.7266 19.7656 17.3105 19.6963C17.4821 19.6759 17.6817 19.6323 17.8476 19.5839C20.4285 18.8312 20.6148 15.4616 18 14.8368C17.8386 14.7982 17.68 14.7625 17.5238 14.7287C16.9887 14.6129 16.4325 14.6179 15.9043 14.7615Z" fill="white"/>
<path d="M16.7508 18.0278C15.4564 18.8266 14.087 16.8652 15.3097 15.9604V15.9604C15.3443 15.9348 15.3799 15.911 15.4165 15.8888C16.651 15.1404 17.9493 17.1452 16.7889 18.0039V18.0039C16.7763 18.012 16.7636 18.02 16.7508 18.0278Z" fill="#2C2A2B"/>
</svg>
