<svg width="450" height="450" viewBox="0 0 450 450" fill="none" xmlns="http://www.w3.org/2000/svg">
<rect width="450" height="450" fill="#01001F"/>
<path d="M140.493 137.869C118.477 145.161 98.4675 156.028 75.9016 177.232C74.2888 178.747 74.2536 181.294 75.8239 182.854C106.383 213.2 129.941 219.414 179.055 213.071C179.249 213.046 179.45 213.005 179.639 212.951C214.069 203.164 234.205 194.462 266.805 179.266C269.577 177.974 269.915 174.17 267.395 172.438C236.325 151.083 212.056 142.032 190.941 136.603C174.35 132.337 156.755 132.483 140.493 137.869Z" fill="white"/>
<path d="M149.524 192.424C136.877 193.542 128.218 179.401 132.404 167.415C134.294 162.002 137.894 157.323 143.053 153.505C149.158 148.988 157.427 147.767 164.538 149.257C173.959 151.231 180.437 161.093 179.003 170.612C178.019 177.151 173.455 181.442 166.825 186.347C161.433 189.812 155.272 191.915 149.524 192.424Z" fill="#01001F"/>
<path d="M216.559 183C182.683 190.856 156.063 200.915 124 232.002C156.028 264.873 179.531 271.634 230.352 265.033C267.09 254.607 287.545 245.435 324 228.372C276.725 194.505 244.871 188.808 216.559 183Z" fill="white"/>
<path d="M200.524 244.424C187.877 245.542 179.218 231.401 183.404 219.415C185.294 214.002 188.894 209.323 194.053 205.505C200.158 200.988 208.427 199.767 215.538 201.257C224.959 203.231 231.437 213.093 230.003 222.612C229.019 229.151 224.455 233.442 217.825 238.347C212.433 241.812 206.272 243.915 200.524 244.424Z" fill="#01001F"/>
<path d="M268.559 234C234.683 241.856 208.063 251.915 176 283.002C208.028 315.873 231.531 322.634 282.352 316.033C319.09 305.607 339.545 296.435 376 279.372C328.725 245.505 296.871 239.808 268.559 234Z" fill="white"/>
<path d="M252.524 295.424C239.877 296.542 231.218 282.401 235.404 270.415C237.294 265.002 240.894 260.323 246.053 256.505C252.158 251.988 260.427 250.767 267.538 252.257C276.959 254.231 283.437 264.093 282.003 273.612C281.019 280.151 276.455 284.442 269.825 289.347C264.433 292.812 258.272 294.915 252.524 295.424Z" fill="#01001F"/>
</svg>
