<svg width="24" height="24" viewBox="0 0 24 24" fill="none" xmlns="http://www.w3.org/2000/svg">
<rect width="24" height="24" rx="3" fill="#2C2A2B"/>
<path d="M7.49317 7.35311C6.31902 7.74199 5.25182 8.32156 4.0483 9.45245C3.96229 9.53327 3.96041 9.66911 4.04416 9.75228C5.67396 11.3708 6.93041 11.7022 9.5498 11.3639C9.56019 11.3625 9.57091 11.3603 9.58099 11.3575C11.4172 10.8355 12.4912 10.3714 14.2298 9.56096C14.3776 9.49206 14.3957 9.28914 14.2613 9.19678C12.6042 8.05786 11.3099 7.57512 10.1837 7.28557C9.29888 7.05806 8.36046 7.06586 7.49317 7.35311Z" fill="white"/>
<path d="M7.97455 10.2627C7.30009 10.3223 6.83826 9.56811 7.06149 8.92888C7.16232 8.64015 7.35429 8.39063 7.62946 8.18701C7.95506 7.94608 8.39605 7.88095 8.7753 7.96043C9.27778 8.06573 9.62327 8.5917 9.54681 9.09937C9.49429 9.4481 9.25088 9.67695 8.8973 9.93859C8.60973 10.1234 8.28115 10.2355 7.97455 10.2627Z" fill="#2C2A2B"/>
<path d="M11.5495 9.76007C9.74282 10.179 8.32308 10.7155 6.61304 12.3735C8.32121 14.1266 9.57469 14.4872 12.2851 14.1351C14.2445 13.5791 15.3354 13.0899 17.2797 12.1799C14.7584 10.3737 13.0595 10.0698 11.5495 9.76007Z" fill="white"/>
<path d="M10.6948 13.036C10.0203 13.0956 9.55847 12.3414 9.78171 11.7022C9.88254 11.4135 10.0745 11.1639 10.3497 10.9603C10.6753 10.7194 11.1163 10.6543 11.4955 10.7337C11.998 10.839 12.3435 11.365 12.267 11.8727C12.2145 12.2214 11.9711 12.4503 11.6175 12.7119C11.3299 12.8967 11.0014 13.0088 10.6948 13.036Z" fill="#2C2A2B"/>
<path d="M14.3232 12.4799C12.5165 12.8989 11.0968 13.4354 9.38672 15.0933C11.0949 16.8465 12.3484 17.2071 15.0588 16.855C17.0182 16.299 18.1091 15.8098 20.0534 14.8998C17.5321 13.0935 15.8332 12.7897 14.3232 12.4799Z" fill="white"/>
<path d="M13.4677 15.756C12.7933 15.8157 12.3314 15.0615 12.5547 14.4222C12.6555 14.1335 12.8475 13.884 13.1226 13.6804C13.4482 13.4394 13.8892 13.3743 14.2685 13.4538C14.7709 13.5591 15.1164 14.0851 15.04 14.5927C14.9874 14.9414 14.744 15.1703 14.3905 15.4319C14.1029 15.6167 13.7743 15.7289 13.4677 15.756Z" fill="#2C2A2B"/>
</svg>
